<?xml version="1.0" encoding="UTF-8"?>
<svg id="Capa_1" xmlns="http://www.w3.org/2000/svg" version="1.1" viewBox="0 0 225 179">
  <!-- Generator: Adobe Illustrator 29.1.0, SVG Export Plug-In . SVG Version: 2.1.0 Build 142)  -->
  <defs>
    <style>
      .st0 {
        fill: none;
      }

      .st1 {
        fill: #ff4191;
      }
    </style>
  </defs>
  <path class="st0" d="M160.7,29.7h-41.5c-.5,0-.8.4-.8.8v24.3c0,.5.4.8.8.8h35.5c.4,0,.7-.3.8-.7l.7-3.4c0-.4.5-.7,1-.6l3.9.7c.5,0,1-.3,1-.8l-.5-20.4c0-.4-.4-.8-.8-.8Z"/>
  <path class="st0" d="M162.4,67c0-.4-.4-.8-.8-.8H63.4c-.4,0-.8.4-.8.8l-1.9,81h103.6l-1.9-81Z"/>
  <path class="st0" d="M105.8,29.7h-41.6c-.4,0-.8.4-.8.8l-.5,20.1c0,.5.5.9,1,.8l2.6-.5c.4,0,.9.2,1,.6l.7,3.4c0,.4.4.7.8.7h36.8c.5,0,.8-.4.8-.8v-24.3c0-.5-.4-.8-.8-.8Z"/>
  <path class="st1" d="M221.1,6.8c-73.1,6.7-145.5,6.7-217.2,0-.6,0-1.1.5-.8,1.1l4.5,11.9c.1.3.4.5.8.5h11.4c.3,0,.6.2.7.4l4.6,8.5c.1.3.4.4.7.4h18c.5,0,.9.4.8.9l-1.4,20.3c0,.5-.5.8-1,.8l-3.6-.7c-.4,0-.9.2-1,.6l-.7,3.4c0,.4-.4.7-.8.7h-15.8c-.5,0-.8.4-.8.8v8.8c0,.5.4.8.8.8h20.8c.5,0,.9.4.8.9l-6,68.2c0,.4-.4.8-.8.8h-.5c-.4,0-.8.3-.8.7l-3.4,34.1c0,.7.5,1.3,1.2,1.3h29.2c.7,0,1.2-.5,1.2-1.2v-33.8c0-.6-.4-1.1-.9-1.2,0,0-.2,0-.2,0l1.6-69c0-.4.4-.8.8-.8h98.2c.4,0,.8.4.8.8l1.6,69c-.1,0-.2,0-.4,0h0c-.5,0-.8.4-.8.8v34.1c0,.7.6,1.2,1.2,1.2h29.2c.7,0,1.3-.6,1.2-1.4l-3.4-34.1c0-.4-.4-.7-.8-.7h-.5c-.4,0-.8-.3-.8-.8l-6-68.2c0-.5.3-.9.8-.9h20.9c.5,0,.8-.4.8-.8v-8.8c0-.5-.4-.8-.8-.8h-17.1c-.4,0-.7-.3-.8-.7l-.7-3.4c0-.4-.5-.7-1-.6l-2.3.4c-.5,0-.9-.3-1-.8l-1.4-20.1c0-.5.3-.9.8-.9h18.1c.3,0,.6-.2.7-.4l4.6-8.5c.1-.3.4-.4.7-.4h11.3c.3,0,.6-.2.8-.5l4.5-11.9c.2-.6-.2-1.2-.8-1.1ZM106.6,54.8c0,.5-.4.8-.8.8h-36.8c-.4,0-.7-.3-.8-.7l-.7-3.4c0-.4-.5-.7-1-.6l-2.6.5c-.5,0-1-.3-1-.8l.5-20.1c0-.4.4-.8.8-.8h41.6c.5,0,.8.4.8.8v24.3ZM161,51.7l-3.9-.7c-.4,0-.9.2-1,.6l-.7,3.4c0,.4-.4.7-.8.7h-35.5c-.5,0-.8-.4-.8-.8v-24.3c0-.5.4-.8.8-.8h41.5c.4,0,.8.4.8.8l.5,20.4c0,.5-.5.9-1,.8Z"/>
</svg>