<?xml version="1.0" encoding="UTF-8"?>
<svg xmlns="http://www.w3.org/2000/svg" xmlns:xlink="http://www.w3.org/1999/xlink" version="1.1" viewBox="0 0 100 100">
  <!-- Generator: Adobe Illustrator 29.1.0, SVG Export Plug-In . SVG Version: 2.1.0 Build 142)  -->
  <defs>
    <style>
      .st0 {
        fill: none;
      }

      .st1 {
        fill: #ff4191;
      }

      .st2 {
        display: none;
      }

      .st3 {
        clip-path: url(#clippath);
      }
    </style>
    <clipPath id="clippath">
      <polygon class="st0" points="-148.3 -77.9 43.7 -77.9 235.7 -77.9 235.7 114.1 235.7 306.1 43.7 306.1 -148.3 306.1 -148.3 114.1 -148.3 -77.9"/>
    </clipPath>
  </defs>
  <g id="Capa_1" class="st2">
    <g class="st3">
      <image width="1600" height="1600" transform="translate(-148.3 -77.9) scale(.2)" xlink:href="enllaç-1.png"/>
    </g>
  </g>
  <g id="Capa_2">
    <path class="st1" d="M60.1,91.4l-19.1-19c-1.8-1.8-1.8-4.6,0-6.4,1.8-1.8,4.6-1.8,6.4,0l19.1,19s4.8,4.7,10.5,4.5c3.1,0,6-1.6,8.7-4.6,3.9-4.2,4.8-8.6,2.9-13.4-1.6-4-4.6-6.8-4.6-6.8h-.1c0-.1-17.7-17.4-17.7-17.4-1.8-1.8-1.8-4.6,0-6.4.9-.9,2.1-1.4,3.2-1.4s2.3.4,3.2,1.3l17.6,17.3c.6.6,4.3,4.1,6.5,9.4,2-5.4,3.1-11.3,3.1-17.4C100,22.4,77.6,0,50,0s-12.5,1.2-18.1,3.4c4.7,2.1,7.8,5.1,8,5.3l19.1,19c1.8,1.8,1.8,4.6,0,6.4-1.8,1.8-4.6,1.8-6.4,0l-19.1-19s-4.8-4.7-10.5-4.5c-3.1,0-6,1.6-8.7,4.6-3.9,4.2-4.8,8.6-2.9,13.4,1.6,4,4.6,6.8,4.6,6.8h.1c0,.1,17.7,17.4,17.7,17.4,1.8,1.8,1.8,4.6,0,6.4-.9.9-2.1,1.4-3.2,1.4s-2.3-.4-3.2-1.3l-17.6-17.3c-.6-.6-4.3-4.1-6.5-9.4-2,5.4-3.1,11.3-3.1,17.4,0,27.6,22.4,50,50,50s12.5-1.2,18.1-3.4c-4.7-2.1-7.8-5.1-8-5.3ZM52.4,51.9c.9-.8,2-1.2,3.1-1.2s2.4.5,3.3,1.4l11.7,12.3c1.7,1.8,1.7,4.7-.2,6.4-1.8,1.7-4.7,1.7-6.4-.2l-11.7-12.3c-1.7-1.8-1.7-4.7.2-6.4ZM29.5,35.6c-1.7-1.8-1.7-4.7.2-6.4,1.8-1.7,4.7-1.7,6.4.2l11.7,12.3c1.7,1.8,1.7,4.7-.2,6.4-.9.8-2,1.2-3.1,1.2s-2.4-.5-3.3-1.4l-11.7-12.3Z"/>
  </g>
</svg>